<svg xmlns="http://www.w3.org/2000/svg" xmlns:xlink="http://www.w3.org/1999/xlink" version="1.1" id="Layer_1" x="0px" y="0px" width="50.4px" height="50.4px" viewBox="0 0 50.4 50.4" enable-background="new 0 0 50.4 50.4" xml:space="preserve">
<g id="Layer_1_1_">
</g>
<g>
	<path fill="#000000" d="M39.759,5.936c-0.757-1.615-0.055-3.53,1.559-4.284c1.61-0.75,3.527-0.054,4.276,1.562   c0.752,1.612,0.056,3.526-1.556,4.278C42.428,8.242,40.508,7.546,39.759,5.936z"/>
	<path fill="#000000" d="M34.906,3.429l-7.393,1.854L23.2,1.261c-1.129-1.297-2.429-1.567-3.781-0.926l-9.263,4.066   C7.965,5.41,9.414,8.526,11.633,7.503c2.061-0.95,8.275-3.677,8.275-3.677l4.418,5.648c0.947,1.506,2.312,1.845,3.575,1.542   l5.448-1.299l-4.059,6.596c-0.43,0.699-0.213,1.613,0.487,2.043c0.24,0.149,0.51,0.223,0.777,0.223   c0.494,0,0.983-0.252,1.263-0.708l6.186-10.035C39.292,5.948,37.904,2.798,34.906,3.429z"/>
</g>
<g>
	<path fill="#000000" d="M19.574,38.169c-2.292-1.292-4.927-1.639-7.233-0.953c-1.924,0.571-3.469,1.82-4.354,3.517   c-0.612,1.176-0.882,2.522-0.781,3.898c0.048,0.661,0.637,1.184,1.284,1.108c0.66-0.05,1.156-0.624,1.108-1.284   c-0.07-0.944,0.104-1.824,0.516-2.612c0.59-1.134,1.597-1.938,2.91-2.329c1.686-0.496,3.645-0.229,5.374,0.745   c2.939,1.655,3.952,5.293,2.306,8.286c-0.32,0.579-0.108,1.31,0.473,1.628c0.183,0.102,0.381,0.148,0.577,0.148   c0.423,0,0.833-0.224,1.051-0.621C25.093,45.543,23.674,40.478,19.574,38.169z"/>
	<path fill="#000000" d="M43.957,33.343c0-1.237-0.372-2.469-1.094-3.566c-1.104-1.679-2.913-2.857-4.962-3.235   c-3.414-0.62-5.928,0.994-7.503,2.319c-0.665-2.094-2.079-3.78-4.218-4.875c-2.604-1.332-5.29-1.47-7.769-0.391   c-2.558,1.111-4.708,3.47-5.969,6.476c-1.375-1.027-3.277-2.116-4.99-2.195c-2.23-0.097-4.233,0.701-5.605,2.266   c-1.562,1.782-2.175,4.384-1.681,7.136c0.117,0.651,0.74,1.083,1.392,0.968c0.651-0.118,1.085-0.74,0.968-1.392   c-0.364-2.029,0.045-3.899,1.124-5.131c0.895-1.021,2.176-1.517,3.691-1.452c1.332,0.062,3.539,1.445,4.818,2.693   c0.304,0.296,0.738,0.405,1.145,0.301c0.409-0.11,0.729-0.425,0.845-0.83c0.894-3.129,2.843-5.609,5.216-6.639   c1.825-0.797,3.75-0.683,5.72,0.324c4.594,2.352,3.5,7.348,2.438,10.115c-0.079,0.207-0.132,0.345-0.139,0.56   c-0.011,0.324,0.111,0.639,0.337,0.873c0.227,0.232,0.536,0.365,0.861,0.365c3.396,0,5.593,2.065,5.593,5.262   c0,2.388-0.976,3.237-1.889,3.848c-0.55,0.366-0.699,1.111-0.331,1.663c0.23,0.344,0.611,0.532,0.999,0.532   c0.229,0,0.459-0.064,0.664-0.202c1.375-0.917,2.954-2.41,2.954-5.841c0-4.037-2.493-6.908-6.354-7.533   c0.43-1.437,0.615-2.796,0.604-4.068c0.074-0.067,0.146-0.132,0.229-0.209c1.256-1.177,3.368-3.141,6.413-2.583   c1.411,0.259,2.646,1.058,3.393,2.192c0.628,0.953,0.842,2.054,0.603,3.094c-0.081,0.356,0.003,0.729,0.23,1.014   c0.228,0.288,0.573,0.452,0.938,0.452c0.001,0,0.003,0,0.004,0c3.062,0,5.086,1.654,5.156,4.213   c0.044,1.604-0.44,2.963-1.399,3.929c-0.878,0.887-2.076,1.342-3.428,1.333c-0.807-0.014-1.571-0.228-2.272-0.634   c-0.575-0.335-1.31-0.136-1.639,0.438c-0.333,0.574-0.137,1.308,0.438,1.639c1.043,0.603,2.229,0.933,3.429,0.956   c0.051,0.001,0.103,0.001,0.153,0.001c1.934,0,3.712-0.722,5.021-2.043c1.412-1.421,2.156-3.439,2.095-5.683   C50.094,36.35,47.595,33.833,43.957,33.343z"/>
</g>
</svg>