<svg xmlns="http://www.w3.org/2000/svg" xmlns:xlink="http://www.w3.org/1999/xlink" xml:space="preserve" width="100px" height="100px" style="shape-rendering:geometricPrecision; text-rendering:geometricPrecision; image-rendering:optimizeQuality; fill-rule:evenodd; clip-rule:evenodd" viewBox="0 0 100 100">
 <defs>
  <style type="text/css">
   
    .fil0 {fill:black}
   
  </style>
 </defs>
 <g id="Layer_x0020_1">
  <metadata id="CorelCorpID_0Corel-Layer"/>
  <ellipse class="fil0" cx="50.0817" cy="23.6408" rx="12.1012" ry="11.8785"/>
  <path class="fil0" d="M36.7338 38.5456c8.87133,-2.20395 17.5159,-2.13545 25.9526,0 6.17249,1.6134 10.832,11.3481 14.4013,18.1005l17.2371 -6.64612c2.09765,-0.780715 3.99924,4.24964 1.59568,5.34099 -21.4076,8.86424 -17.2572,11.7946 -33.1762,-2.81223l-1.43741 14.947c28.7518,-14.4048 41.6673,28.2675 -15.2174,6.09454l19.5887 7.96778c4.15869,2.28309 0.3189,9.01188 -6.0721,5.88548l-10.669 -4.45633c-2.02797,0.783077 -16.6844,7.52959 -15.3072,2.66223l1.55316 -5.81697c-27.7301,2.63152 -31.2038,-24.4585 3.19609,-12.3296l-1.64765 -14.9281c-13.1647,15.5375 -14.2537,10.5556 -32.7522,2.79923 -2.49687,-1.2508 0.0814967,-6.57289 2.42482,-5.38233l16.6608 6.57171c3.26223,-6.73824 8.83353,-16.2497 13.669,-17.9978z"/>
 </g>
</svg>